<svg aria-hidden="true" style="position:absolute;width:0;height:0;overflow:hidden" xmlns="http://www.w3.org/2000/svg"><defs>

<symbol id="icon-menu" viewBox="0 0 32 32">
<path d="M6.4 11.733v-2.133h19.2v2.133h-19.2zM6.4 17.067h19.2v-2.133h-19.2v2.133zM6.4 22.4h19.2v-2.133h-19.2v2.133z"></path>
</symbol>

<symbol id="icon-Logo-6" viewBox="0 0 57 32">
<path d="M28.661 15.122c-0.192-0.276-0.307-0.618-0.307-0.987 0-0.039 0.001-0.077 0.004-0.115l-0 0.005v-1.59c0-0.488 0.101-0.859 0.302-1.112s0.548-0.38 1.039-0.379c0.461 0 0.789 0.108 0.983 0.324 0.211 0.275 0.314 0.612 0.29 0.951v0.373h-0.825v-0.379c0-0.015 0.001-0.032 0.001-0.049 0-0.113-0.009-0.225-0.026-0.333l0.002 0.012c-0.013-0.088-0.056-0.164-0.118-0.22l-0-0c-0.073-0.054-0.165-0.087-0.264-0.087-0.012 0-0.025 0.001-0.037 0.001l0.002-0c-0.010-0.001-0.022-0.001-0.035-0.001-0.105 0-0.203 0.034-0.281 0.093l0.001-0.001c-0.069 0.062-0.118 0.146-0.137 0.24l-0 0.003c-0.023 0.13-0.034 0.261-0.032 0.393v1.931c-0.013 0.186 0.023 0.372 0.106 0.542 0.042 0.058 0.098 0.103 0.163 0.131l0.003 0.001c0.048 0.021 0.104 0.033 0.163 0.033 0.017 0 0.035-0.001 0.052-0.003l-0.002 0c0.010 0.001 0.022 0.001 0.034 0.001 0.098 0 0.188-0.033 0.259-0.090l-0.001 0.001c0.064-0.060 0.109-0.141 0.122-0.232l0-0.002c0.020-0.128 0.028-0.258 0.026-0.387v-0.392h0.825v0.357c0.002 0.030 0.003 0.064 0.003 0.099 0 0.338-0.108 0.651-0.292 0.907l0.003-0.005c-0.189 0.236-0.513 0.354-0.988 0.354s-0.834-0.126-1.038-0.388zM32.099 15.138c-0.209-0.248-0.313-0.609-0.313-1.086v-1.674c0-0.473 0.105-0.83 0.313-1.073s0.557-0.364 1.046-0.363c0.485 0 0.832 0.121 1.041 0.363 0.208 0.243 0.315 0.6 0.315 1.073v1.674c0 0.473-0.107 0.835-0.318 1.084s-0.557 0.373-1.037 0.373c-0.48 0-0.836-0.126-1.046-0.372zM33.53 14.737c0.075-0.155 0.109-0.325 0.099-0.495v-2.049c0.001-0.016 0.002-0.036 0.002-0.055 0-0.157-0.037-0.305-0.102-0.436l0.003 0.006c-0.043-0.059-0.1-0.104-0.166-0.132l-0.003-0.001c-0.048-0.021-0.103-0.033-0.162-0.033-0.020 0-0.039 0.001-0.058 0.004l0.002-0c-0.017-0.002-0.036-0.004-0.056-0.004-0.059 0-0.115 0.012-0.166 0.034l0.003-0.001c-0.069 0.029-0.126 0.075-0.169 0.132l-0.001 0.001c-0.075 0.151-0.109 0.318-0.099 0.485v2.058c-0.011 0.171 0.023 0.34 0.099 0.495 0.048 0.052 0.106 0.093 0.171 0.121l0.003 0.001c0.063 0.028 0.136 0.044 0.212 0.044s0.15-0.016 0.216-0.045l-0.003 0.001c0.068-0.030 0.126-0.071 0.174-0.122l0-0v-0.010zM35.493 10.992h0.889l0.668 3.088 0.684-3.088h0.865l0.087 4.457h-0.638l-0.069-3.097-0.66 3.097h-0.513l-0.684-3.108-0.063 3.108h-0.646l0.080-4.456zM39.683 10.992h1.385c0.798 0 1.197 0.422 1.197 1.266 0 0.808-0.42 1.211-1.26 1.211h-0.472v1.98h-0.854l0.005-4.456zM40.866 12.897c0.084 0.011 0.17 0.003 0.251-0.021s0.156-0.065 0.219-0.119c0.098-0.151 0.141-0.327 0.123-0.503 0.001-0.015 0.001-0.032 0.001-0.050 0-0.126-0.015-0.248-0.044-0.365l0.002 0.010c-0.013-0.047-0.035-0.088-0.063-0.123l0.001 0.001c-0.030-0.036-0.065-0.066-0.106-0.089l-0.002-0.001c-0.099-0.046-0.214-0.072-0.336-0.072-0.016 0-0.032 0-0.048 0.001l0.002-0h-0.332v1.331h0.332zM43.497 10.992h0.918l0.942 4.457h-0.797l-0.186-1.028h-0.819l-0.192 1.028h-0.808l0.942-4.456zM44.281 13.905l-0.32-1.871-0.319 1.871h0.639zM46.117 10.992h0.598l1.145 2.542v-2.542h0.709v4.456h-0.569l-1.152-2.654v2.654h-0.733l0.002-4.456zM50.231 13.749l-0.953-2.751h0.802l0.581 1.767 0.545-1.767h0.784l-0.94 2.751v1.699h-0.82v-1.699zM29.981 17.397v0.233h-0.698v1.811h-0.292v-1.811h-0.701v-0.233h1.691zM32.167 19.441h-0.226c-0.002 0-0.004 0-0.006 0-0.022 0-0.042-0.007-0.058-0.020l0 0c-0.017-0.012-0.029-0.028-0.037-0.046l-0-0.001-0.202-0.485h-0.967l-0.202 0.485c-0.006 0.021-0.017 0.040-0.031 0.055l0-0c-0.016 0.012-0.036 0.019-0.058 0.019-0.002 0-0.004-0-0.005-0h-0.225l0.855-2.043h0.297l0.865 2.035zM30.752 18.682h0.807l-0.341-0.832c-0.022-0.051-0.044-0.115-0.061-0.181l-0.003-0.011-0.032 0.108-0.031 0.085-0.339 0.83zM33.641 19.24c0.053 0.003 0.107 0.003 0.16 0 0.046-0.005 0.092-0.013 0.137-0.025 0.049-0.011 0.090-0.024 0.13-0.040l-0.007 0.002c0.037-0.014 0.075-0.032 0.115-0.050v-0.459h-0.342c-0.001 0-0.003 0-0.004 0-0.016 0-0.031-0.006-0.043-0.016l0 0c-0.010-0.009-0.017-0.021-0.017-0.036 0-0 0-0.001 0-0.001v0-0.157h0.663v0.783c-0.103 0.070-0.223 0.127-0.352 0.164l-0.009 0.002c-0.060 0.018-0.133 0.033-0.207 0.042l-0.007 0.001c-0.074 0.008-0.16 0.013-0.246 0.013-0.001 0-0.002 0-0.003 0h0c-0.003 0-0.006 0-0.010 0-0.151 0-0.296-0.028-0.429-0.079l0.008 0.003c-0.132-0.051-0.246-0.123-0.342-0.214l0.001 0c-0.092-0.090-0.167-0.198-0.218-0.317l-0.002-0.006c-0.050-0.121-0.078-0.262-0.078-0.409 0-0.005 0-0.010 0-0.015v0.001c-0-0.004-0-0.009-0-0.014 0-0.149 0.028-0.291 0.080-0.421l-0.003 0.008c0.049-0.122 0.124-0.231 0.22-0.324 0.098-0.092 0.214-0.164 0.342-0.212 0.147-0.052 0.302-0.078 0.458-0.076 0.080 0 0.159 0.006 0.238 0.018 0.069 0.011 0.138 0.028 0.203 0.052 0.060 0.021 0.117 0.048 0.171 0.081 0.053 0.032 0.102 0.068 0.149 0.107l-0.083 0.126c-0.007 0.012-0.016 0.021-0.027 0.028l-0 0c-0.011 0.007-0.025 0.010-0.039 0.011h-0c-0.020-0.001-0.038-0.006-0.053-0.016l0 0c-0.034-0.017-0.061-0.033-0.088-0.050l0.004 0.002c-0.032-0.020-0.070-0.038-0.11-0.054l-0.005-0.002c-0.044-0.017-0.097-0.033-0.151-0.044l-0.006-0.001c-0.062-0.011-0.133-0.018-0.205-0.018-0.004 0-0.008 0-0.012 0h0.001c-0.003-0-0.007-0-0.010-0-0.115 0-0.224 0.021-0.326 0.059l0.006-0.002c-0.098 0.038-0.182 0.092-0.251 0.162l0-0c-0.071 0.074-0.125 0.16-0.159 0.254-0.036 0.102-0.057 0.219-0.057 0.341s0.021 0.239 0.059 0.348l-0.002-0.007c0.037 0.096 0.095 0.184 0.171 0.258 0.070 0.070 0.155 0.125 0.25 0.162 0.109 0.035 0.224 0.049 0.339 0.041zM36.365 19.207h0.933v0.233h-1.219v-2.044h0.292l-0.007 1.811zM38.27 19.44h-0.293v-2.043h0.293v2.044zM39.357 17.406c0.017 0.010 0.032 0.022 0.044 0.037l1.25 1.541c-0.001-0.011-0.001-0.024-0.001-0.037s0-0.026 0.001-0.038l-0 0.002v-1.523h0.255v2.052h-0.147c-0.003 0-0.007 0-0.010 0-0.019 0-0.038-0.004-0.054-0.012l0.001 0c-0.018-0.010-0.033-0.023-0.046-0.039l-0-0-1.248-1.539v1.589h-0.244v-2.043h0.152c0.017 0 0.033 0.003 0.048 0.010zM43.057 17.397v0.225h-1.036v0.675h0.839v0.217h-0.839v0.698h1.036v0.225h-1.337v-2.039h1.337zM12.428 4.775l12.979 3.489v12.225l-12.978-3.486v-12.227zM11.597 3.733v13.862l14.642 3.937v-13.861l-14.642-3.938z"></path>
<path d="M19.443 27.968l-14.643-3.94v-13.861l14.643 3.939v13.863z"></path>
<path d="M11.839 4.619l12.809 3.445-5.447 5.158-12.811-3.446 5.449-5.157zM11.596 3.733l-6.796 6.434 14.643 3.939 6.795-6.434-14.642-3.939zM20.268 27.188l5.97-5.653-5.97-1.607v7.26z"></path>
</symbol>

<symbol id="icon-Logo-5" viewBox="0 0 57 32">
<path d="M14.66 24.148c0.123 0.152 0.188 0.343 0.185 0.539 0.001 0.012 0.001 0.027 0.001 0.041 0 0.254-0.111 0.482-0.287 0.639l-0.001 0.001c-0.238 0.181-0.533 0.269-0.831 0.249h-1.461v-3.416h1.431c0.024-0.002 0.052-0.003 0.081-0.003 0.267 0 0.515 0.086 0.716 0.232l-0.004-0.002c0.171 0.144 0.278 0.358 0.278 0.597 0 0.015-0 0.029-0.001 0.043l0-0.002c0.009 0.188-0.051 0.373-0.166 0.523-0.111 0.135-0.265 0.229-0.436 0.267 0.194 0.036 0.369 0.139 0.494 0.292zM12.947 23.633h0.612c0.139 0.011 0.277-0.030 0.389-0.114 0.082-0.075 0.133-0.181 0.133-0.3 0-0.012-0.001-0.024-0.002-0.035l0 0.002c0.001-0.009 0.001-0.019 0.001-0.029 0-0.12-0.050-0.228-0.13-0.304l-0-0c-0.097-0.073-0.22-0.117-0.353-0.117-0.017 0-0.033 0.001-0.050 0.002l0.002-0h-0.602v0.896zM14.007 24.942c0.089-0.078 0.145-0.192 0.145-0.32 0-0.009-0-0.019-0.001-0.028l0 0.001c0-0.007 0.001-0.016 0.001-0.025 0-0.13-0.057-0.246-0.148-0.326l-0.001-0c-0.104-0.078-0.234-0.125-0.376-0.125-0.014 0-0.028 0-0.042 0.001l0.002-0h-0.641v0.939h0.65c0.146 0.009 0.291-0.033 0.411-0.118zM17.585 25.617l-0.796-1.335h-0.299v1.335h-0.685v-3.416h1.296c0.027-0.002 0.058-0.003 0.089-0.003 0.31 0 0.595 0.111 0.816 0.295l-0.002-0.002c0.192 0.197 0.311 0.466 0.311 0.763 0 0.245-0.081 0.471-0.217 0.653l0.002-0.003c-0.16 0.184-0.378 0.307-0.618 0.347l0.848 1.365h-0.745zM16.49 23.816h0.56c0.389 0 0.583-0.172 0.583-0.517 0.001-0.009 0.001-0.019 0.001-0.029 0-0.138-0.055-0.263-0.144-0.355l0 0c-0.104-0.088-0.24-0.141-0.388-0.141-0.018 0-0.037 0.001-0.055 0.002l0.002-0h-0.567l0.007 1.040zM21.328 24.929h-1.364l-0.241 0.688h-0.718l1.253-3.378h0.776l1.248 3.378h-0.718l-0.236-0.687zM21.146 24.412l-0.499-1.442-0.499 1.442h0.997zM26.014 25.617h-0.681l-1.524-2.323v2.323h-0.678v-3.416h0.678l1.524 2.336v-2.336h0.68v3.416zM29.893 24.799c-0.143 0.259-0.353 0.465-0.607 0.599l-0.008 0.004c-0.296 0.15-0.624 0.224-0.956 0.215h-1.211v-3.416h1.211c0.016-0 0.034-0.001 0.053-0.001 0.329 0 0.64 0.078 0.915 0.217l-0.012-0.005c0.26 0.131 0.475 0.339 0.615 0.596 0.134 0.261 0.213 0.569 0.213 0.896s-0.079 0.635-0.218 0.907l0.005-0.011zM29.115 24.717c0.187-0.218 0.301-0.503 0.301-0.815s-0.114-0.597-0.302-0.817l0.001 0.002c-0.206-0.182-0.479-0.293-0.778-0.293-0.026 0-0.051 0.001-0.076 0.002l0.003-0h-0.472v2.211h0.472c0.022 0.001 0.048 0.002 0.074 0.002 0.298 0 0.571-0.111 0.778-0.294l-0.001 0.001zM21.754 3.2s8.774 3.326 8.587 8.139v8.14s-8.767-3.328-8.585-8.14l-0.003-8.139zM38.158 17.573c1.571-1.098 3.469-1.837 5.522-2.058l0.053-0.005v-2.548c-2.346 0.925-4.259 2.528-5.547 4.564l-0.028 0.047z"></path>
<path d="M37.163 18.341c1.37-2.731 3.676-4.824 6.488-5.885l0.082-0.027v-7.342s-12.496 4.738-12.231 11.591v11.59s0.557-0.212 1.433-0.609c0-0.371 0-0.744 0.040-1.12 0.274-3.294 1.835-6.178 4.172-8.183l0.016-0.014z"></path>
<path d="M35.975 22.646c0.066-0.804 0.212-1.599 0.437-2.373-1.596 1.881-2.587 4.319-2.646 6.988l-0 0.013c1.018-0.489 1.805-0.913 2.574-1.364l-0.171 0.093c-0.149-0.711-0.235-1.529-0.235-2.366 0-0.348 0.015-0.693 0.044-1.034l-0.003 0.044zM36.472 22.688c-0.024 0.281-0.038 0.609-0.038 0.94 0 0.742 0.070 1.468 0.205 2.171l-0.011-0.072c3.413-2.051 7.25-5.22 7.102-9.050v-0.334c-2.543 0.294-4.784 1.401-6.5 3.050l0.004-0.004c-0.392 0.967-0.663 2.087-0.758 3.257l-0.003 0.041z"></path>
</symbol>

<symbol id="icon-Logo-4" viewBox="0 0 57 32">
<path d="M13.548 11.643h-0.001c-1.206 0-2.185 0.954-2.185 2.129v0.002c0 1.175 0.978 2.129 2.185 2.129h0.002c1.206 0 2.185-0.954 2.185-2.129v-0.002c0-1.175-0.978-2.129-2.185-2.129zM29.673 10.963c-0.004-1.634-0.671-3.199-1.856-4.354-1.184-1.155-2.79-1.805-4.466-1.809-1.676 0.003-3.283 0.653-4.469 1.808s-1.853 2.721-1.856 4.355v9.005s12.645-1.372 12.647-9.004v-0.001zM6.933 22.924c0.006 1.189 0.499 2.261 1.291 3.028l0.001 0.001c0.803 0.779 1.899 1.259 3.108 1.26h0c1.208-0.001 2.304-0.481 3.108-1.26l-0.001 0.001c0.793-0.768 1.286-1.84 1.293-3.027v-6.268s-8.799 0.957-8.799 6.266zM11.333 24.046c-0.001 0-0.001 0-0.002 0-0.237 0-0.458-0.070-0.643-0.192l0.004 0.003c-0.188-0.122-0.334-0.294-0.422-0.497l-0.003-0.007c-0.055-0.127-0.087-0.274-0.087-0.429 0-0.078 0.008-0.154 0.024-0.227l-0.001 0.007c0.048-0.227 0.159-0.423 0.314-0.575l0-0c0.158-0.153 0.359-0.262 0.583-0.306l0.007-0.001c0.223-0.044 0.455-0.021 0.666 0.064s0.39 0.229 0.517 0.413c0.122 0.175 0.194 0.391 0.194 0.625 0 0.155-0.032 0.303-0.090 0.437l0.003-0.007c-0.058 0.137-0.142 0.261-0.249 0.366s-0.235 0.188-0.374 0.244c-0.131 0.054-0.282 0.086-0.442 0.086-0 0-0 0-0.001 0h0v-0.004zM20.315 23.35h-0.9v0.93h-0.469v-2.274h1.482v0.38h-1.012v0.587h0.9v0.379zM22.567 23.194c0 0.224-0.039 0.42-0.119 0.589s-0.193 0.299-0.34 0.39c-0.139 0.087-0.308 0.138-0.489 0.138-0.006 0-0.013-0-0.019-0h0.001c-0.188 0-0.357-0.045-0.505-0.136-0.149-0.094-0.267-0.225-0.341-0.382l-0.002-0.006c-0.078-0.165-0.124-0.358-0.124-0.563 0-0.007 0-0.013 0-0.020v0.001-0.113c0-0.224 0.040-0.421 0.121-0.591 0.081-0.171 0.195-0.301 0.342-0.392 0.148-0.092 0.317-0.138 0.507-0.138s0.357 0.046 0.505 0.138c0.148 0.091 0.262 0.221 0.342 0.392 0.082 0.17 0.122 0.366 0.122 0.589v0.101zM22.093 23.091c0-0.238-0.043-0.42-0.128-0.544-0.076-0.113-0.203-0.186-0.348-0.186-0.006 0-0.013 0-0.019 0l0.001-0c-0.005-0-0.012-0-0.018-0-0.144 0-0.271 0.073-0.346 0.183l-0.001 0.001c-0.085 0.122-0.129 0.301-0.13 0.537v0.111c0 0.233 0.043 0.413 0.128 0.541s0.208 0.192 0.369 0.192c0.006 0 0.012 0 0.018 0 0.143 0 0.269-0.073 0.343-0.183l0.001-0.001c0.084-0.124 0.127-0.304 0.128-0.541v-0.111zM24.087 23.683c0-0.004 0-0.009 0-0.013 0-0.077-0.037-0.145-0.093-0.189l-0.001-0c-0.062-0.048-0.175-0.098-0.338-0.15-0.15-0.047-0.278-0.1-0.4-0.163l0.014 0.006c-0.258-0.14-0.387-0.327-0.387-0.564 0-0.123 0.034-0.233 0.103-0.329 0.070-0.097 0.17-0.172 0.299-0.227 0.13-0.054 0.276-0.081 0.437-0.081 0.163 0 0.307 0.030 0.435 0.089s0.225 0.141 0.295 0.249c0.071 0.107 0.107 0.229 0.107 0.366h-0.469c0-0.105-0.033-0.185-0.098-0.242-0.066-0.059-0.158-0.088-0.277-0.088-0.115 0-0.203 0.025-0.267 0.074-0.058 0.042-0.096 0.109-0.096 0.186 0 0.002 0 0.004 0 0.006v-0c0 0.074 0.037 0.135 0.111 0.186s0.185 0.097 0.33 0.141c0.267 0.080 0.461 0.18 0.583 0.299s0.182 0.267 0.182 0.443c0 0.197-0.075 0.352-0.223 0.464s-0.349 0.167-0.602 0.167c-0.175 0-0.334-0.032-0.478-0.095-0.135-0.058-0.247-0.148-0.328-0.262l-0.002-0.002c-0.071-0.105-0.113-0.235-0.113-0.374 0-0.005 0-0.009 0-0.014v0.001h0.47c0 0.251 0.15 0.377 0.45 0.377 0.112 0 0.199-0.022 0.261-0.067 0.057-0.041 0.094-0.107 0.094-0.182 0-0.003-0-0.006-0-0.009v0zM26.589 22.385h-0.697v1.895h-0.469v-1.895h-0.687v-0.38h1.853v0.38zM28.227 23.294h-0.9v0.609h1.056v0.377h-1.525v-2.274h1.522v0.38h-1.053v0.542h0.9v0.367zM29.5 23.447h-0.373v0.833h-0.469v-2.274h0.846c0.269 0 0.476 0.060 0.622 0.18s0.219 0.289 0.219 0.508c0 0.155-0.034 0.285-0.101 0.389-0.075 0.109-0.179 0.194-0.301 0.245l-0.005 0.002 0.492 0.93v0.022h-0.503l-0.427-0.833zM29.127 23.067h0.378c0.117 0 0.209-0.030 0.273-0.089 0.060-0.059 0.098-0.141 0.098-0.232 0-0.006-0-0.012-0-0.018l0 0.001c0-0.107-0.030-0.192-0.092-0.253-0.060-0.062-0.154-0.092-0.279-0.092h-0.377v0.683zM31.967 23.478v0.802h-0.469v-2.274h0.887c0.171 0 0.321 0.031 0.45 0.094 0.13 0.062 0.23 0.151 0.3 0.267s0.105 0.245 0.105 0.393c0 0.223-0.077 0.399-0.23 0.528-0.152 0.128-0.363 0.192-0.633 0.192h-0.411zM31.967 23.099h0.419c0.124 0 0.219-0.029 0.283-0.088 0.066-0.058 0.099-0.141 0.099-0.25 0-0.005 0-0.011 0-0.016 0-0.098-0.038-0.187-0.099-0.254l0 0c-0.066-0.069-0.156-0.104-0.272-0.107h-0.429v0.715zM34.933 23.294h-0.9v0.609h1.056v0.377h-1.525v-2.274h1.522v0.38h-1.053v0.542h0.9v0.367zM37.108 22.385h-0.698v1.895h-0.469v-1.895h-0.687v-0.38h1.853v0.38zM38.746 23.294h-0.9v0.609h1.056v0.377h-1.524v-2.274h1.522v0.38h-1.053v0.542h0.9v0.367zM40.019 23.447h-0.373v0.833h-0.469v-2.274h0.845c0.269 0 0.476 0.060 0.622 0.18s0.219 0.289 0.219 0.508c0 0.155-0.034 0.285-0.101 0.389-0.075 0.109-0.179 0.194-0.3 0.245l-0.005 0.002 0.492 0.93v0.022h-0.503l-0.427-0.833zM39.646 23.067h0.378c0.118 0 0.209-0.030 0.274-0.089 0.060-0.059 0.097-0.141 0.097-0.232 0-0.006-0-0.012-0-0.018l0 0.001c0-0.107-0.031-0.192-0.092-0.253-0.060-0.062-0.154-0.092-0.28-0.092h-0.377v0.683zM42.401 23.683c0-0.004 0-0.008 0-0.013 0-0.077-0.037-0.146-0.094-0.189l-0.001-0c-0.063-0.048-0.175-0.098-0.338-0.15-0.15-0.047-0.278-0.1-0.4-0.163l0.014 0.006c-0.258-0.14-0.387-0.327-0.387-0.564 0-0.123 0.034-0.233 0.103-0.329s0.169-0.172 0.299-0.227c0.13-0.054 0.276-0.081 0.437-0.081 0.163 0 0.307 0.030 0.434 0.089s0.226 0.141 0.295 0.249c0.071 0.107 0.107 0.229 0.107 0.366h-0.469c0-0.105-0.033-0.185-0.098-0.242-0.066-0.059-0.158-0.088-0.277-0.088-0.115 0-0.204 0.025-0.267 0.074-0.058 0.042-0.096 0.109-0.096 0.186 0 0.002 0 0.004 0 0.006v-0c0 0.074 0.037 0.135 0.111 0.186s0.185 0.097 0.33 0.141c0.267 0.080 0.461 0.18 0.583 0.299s0.182 0.267 0.182 0.443c0 0.197-0.075 0.352-0.223 0.464s-0.349 0.167-0.602 0.167c-0.175 0-0.334-0.032-0.478-0.095-0.135-0.058-0.247-0.148-0.328-0.262l-0.002-0.002c-0.071-0.105-0.113-0.235-0.113-0.374 0-0.005 0-0.009 0-0.014v0.001h0.47c0 0.251 0.149 0.377 0.45 0.377 0.112 0 0.199-0.022 0.261-0.067 0.057-0.041 0.094-0.107 0.094-0.182 0-0.003-0-0.007-0-0.010l0 0z"></path>
</symbol>

<symbol id="icon-Logo-3" viewBox="0 0 57 32">
<path d="M20.451 27.091c0.017 0 0.032 0.007 0.043 0.018v0l0.109 0.115c-0.085 0.093-0.19 0.167-0.309 0.218-0.139 0.055-0.287 0.082-0.437 0.078-0.007 0-0.014 0-0.022 0-0.14 0-0.274-0.027-0.397-0.076l0.007 0.003c-0.238-0.096-0.421-0.284-0.508-0.52l-0.002-0.006c-0.044-0.117-0.069-0.253-0.069-0.394 0-0.005 0-0.010 0-0.016v0.001c-0-0.005-0-0.011-0-0.017 0-0.142 0.027-0.277 0.077-0.401l-0.003 0.007c0.048-0.118 0.121-0.227 0.213-0.318 0.093-0.091 0.205-0.161 0.329-0.208 0.135-0.050 0.279-0.075 0.423-0.073 0.135-0.003 0.269 0.019 0.394 0.067 0.108 0.045 0.208 0.107 0.295 0.184l-0.092 0.123c-0.006 0.009-0.014 0.016-0.023 0.022l-0 0c-0.009 0.006-0.020 0.010-0.032 0.010-0.002 0-0.003-0-0.005-0h0c-0.015-0.001-0.028-0.006-0.040-0.014l0 0-0.050-0.033-0.069-0.042c-0.063-0.033-0.135-0.059-0.212-0.072l-0.005-0.001c-0.045-0.008-0.097-0.013-0.15-0.013-0.005 0-0.009 0-0.014 0h0.001c-0.003-0-0.007-0-0.011-0-0.106 0-0.206 0.020-0.299 0.056l0.006-0.002c-0.093 0.036-0.173 0.089-0.239 0.155l0-0c-0.068 0.071-0.121 0.155-0.155 0.245-0.039 0.104-0.058 0.214-0.057 0.324-0.002 0.112 0.018 0.224 0.057 0.33 0.034 0.090 0.085 0.173 0.152 0.244 0.063 0.067 0.141 0.118 0.228 0.152 0.090 0.035 0.186 0.053 0.283 0.052 0.056 0.001 0.112-0.003 0.167-0.011 0.091-0.011 0.177-0.041 0.254-0.087 0.038-0.024 0.075-0.051 0.108-0.081 0.014-0.013 0.032-0.021 0.052-0.021h0zM23.62 26.512c0.002 0.139-0.023 0.277-0.074 0.407-0.048 0.123-0.118 0.229-0.206 0.316l-0 0c-0.090 0.088-0.198 0.159-0.318 0.205l-0.006 0.002c-0.124 0.046-0.267 0.073-0.417 0.073s-0.293-0.027-0.426-0.076l0.008 0.003c-0.126-0.049-0.233-0.12-0.323-0.208l0 0c-0.088-0.088-0.159-0.194-0.206-0.312l-0.002-0.006c-0.047-0.121-0.074-0.261-0.074-0.407s0.027-0.286 0.077-0.415l-0.003 0.008c0.046-0.119 0.117-0.228 0.208-0.32 0.090-0.085 0.197-0.153 0.316-0.198l0.007-0.002c0.124-0.047 0.267-0.075 0.417-0.075s0.293 0.027 0.425 0.077l-0.008-0.003c0.122 0.047 0.232 0.117 0.324 0.208 0.091 0.091 0.161 0.197 0.207 0.315 0.051 0.131 0.076 0.269 0.075 0.409zM23.332 26.512c0-0.005 0-0.011 0-0.017 0-0.111-0.019-0.217-0.054-0.316l0.002 0.007c-0.062-0.184-0.199-0.328-0.374-0.397l-0.004-0.002c-0.090-0.034-0.194-0.054-0.303-0.054s-0.213 0.020-0.309 0.056l0.006-0.002c-0.18 0.071-0.318 0.214-0.378 0.394l-0.001 0.005c-0.069 0.213-0.069 0.441 0 0.654 0.062 0.184 0.2 0.327 0.375 0.396l0.004 0.002c0.196 0.069 0.411 0.069 0.606 0 0.089-0.034 0.167-0.086 0.232-0.153 0.066-0.071 0.116-0.155 0.147-0.244 0.037-0.106 0.054-0.216 0.052-0.327zM25.781 26.855l0.029 0.073c0.011-0.026 0.020-0.050 0.031-0.073 0.012-0.029 0.024-0.053 0.038-0.075l-0.002 0.003 0.701-1.214c0.014-0.021 0.026-0.034 0.040-0.038s0.031-0.007 0.047-0.007c0.004 0 0.007 0 0.011 0l-0-0h0.207v1.974h-0.245v-1.513c-0.001-0.010-0.001-0.022-0.001-0.034s0-0.024 0.001-0.036l-0 0.002-0.705 1.231c-0.009 0.019-0.024 0.034-0.041 0.045l-0 0c-0.017 0.010-0.037 0.016-0.059 0.016-0.001 0-0.001 0-0.002 0h-0.039c-0.021 0.001-0.043-0.005-0.060-0.016s-0.032-0.026-0.041-0.044l-0-0.001-0.725-1.239v1.586h-0.237v-1.971h0.207c0.003-0 0.007-0 0.010-0 0.017 0 0.033 0.002 0.049 0.007l-0.001-0c0.017 0.008 0.030 0.021 0.038 0.037l0 0 0.716 1.215c0.013 0.020 0.025 0.043 0.035 0.068l0.001 0.003zM28.42 26.757v0.739h-0.274v-1.971h0.612c0.007-0 0.015-0 0.023-0 0.113 0 0.223 0.016 0.326 0.045l-0.008-0.002c0.089 0.024 0.171 0.066 0.242 0.123 0.061 0.053 0.108 0.12 0.137 0.194 0.032 0.081 0.048 0.166 0.046 0.252 0.002 0.086-0.016 0.172-0.051 0.252-0.035 0.078-0.085 0.144-0.147 0.197l-0.001 0.001c-0.068 0.058-0.149 0.102-0.238 0.129l-0.005 0.001c-0.107 0.033-0.219 0.048-0.331 0.046l-0.332-0.005zM28.42 26.545h0.332c0.073 0.001 0.144-0.009 0.213-0.030 0.059-0.019 0.11-0.048 0.154-0.086l-0.001 0.001c0.040-0.035 0.072-0.079 0.092-0.128l0.001-0.002c0.021-0.048 0.033-0.103 0.033-0.161 0-0.002 0-0.004-0-0.005v0c0-0.006 0.001-0.013 0.001-0.020 0-0.051-0.010-0.099-0.029-0.142l0.001 0.002c-0.023-0.053-0.055-0.098-0.096-0.135l-0-0c-0.090-0.067-0.204-0.108-0.327-0.108-0.015 0-0.029 0.001-0.044 0.002l0.002-0h-0.332v0.813zM32.107 27.499h-0.217c-0.001 0-0.003 0-0.004 0-0.021 0-0.041-0.007-0.057-0.018l0 0c-0.015-0.012-0.027-0.027-0.035-0.045l-0-0.001-0.187-0.477h-0.937l-0.194 0.477c-0.008 0.018-0.019 0.033-0.034 0.044l-0 0c-0.016 0.012-0.036 0.020-0.058 0.020-0.001 0-0.002-0-0.004-0h-0.216l0.823-1.975h0.285l0.834 1.975zM30.749 26.766h0.774l-0.326-0.804c-0.022-0.051-0.043-0.112-0.060-0.176l-0.002-0.010-0.032 0.103c-0.011 0.035-0.021 0.063-0.032 0.090l0.002-0.006-0.324 0.802zM33.292 25.533c0.017 0.009 0.030 0.021 0.042 0.036l1.2 1.488v-1.532h0.245v1.975h-0.137c-0.001 0-0.002 0-0.004 0-0.019 0-0.037-0.004-0.053-0.012l0.001 0c-0.017-0.010-0.032-0.022-0.044-0.037l-0-0-1.199-1.487c0.001 0.022 0.001 0.045 0 0.068v1.468h-0.245v-1.975h0.145c0.017 0 0.034 0.003 0.049 0.009zM36.802 26.714v0.784h-0.275v-0.784l-0.758-1.189h0.245c0.002-0 0.003-0 0.005-0 0.020 0 0.039 0.006 0.054 0.017l-0-0c0.015 0.013 0.027 0.027 0.037 0.044l0 0.001 0.475 0.767c0.032 0.050 0.061 0.108 0.082 0.169l0.002 0.006 0.036-0.085c0.013-0.031 0.029-0.061 0.047-0.090l0.468-0.772c0.010-0.016 0.022-0.030 0.036-0.042l0-0c0.015-0.012 0.034-0.019 0.054-0.019 0.002 0 0.003 0 0.005 0h0.248l-0.76 1.195zM25.646 22.21c0.119 0.014 0.24 0.027 0.362 0.037 1.851-0.789 3.417-2.080 4.502-3.712s1.641-3.533 1.598-5.465l-2.040-1.943c0.135 0.641 0.213 1.377 0.213 2.131 0 1.444-0.284 2.822-0.799 4.080l0.026-0.072c-0.781 1.957-2.118 3.669-3.862 4.944z"></path>
<path d="M24.917 22.12l0.055 0.011c1.863-1.27 3.284-3.044 4.079-5.091 0.449-1.121 0.71-2.42 0.71-3.78 0-0.929-0.122-1.83-0.35-2.687l0.016 0.073-2.905-2.768c0.909 1.717 1.443 3.754 1.443 5.915 0 0.503-0.029 0.999-0.085 1.487l0.006-0.059c-0.284 2.522-1.314 4.914-2.969 6.9zM34.771 15.353c-0.494 2.123-1.692 4.036-3.419 5.458-0.476 0.397-1.008 0.764-1.57 1.082l-0.054 0.028c1.461-0.414 2.726-1.115 3.787-2.043l-0.011 0.010c1.050-0.918 1.881-2.060 2.422-3.353l0.022-0.060-1.179-1.122z"></path>
<path d="M34.309 15.040l-1.678-1.598c-0.038 1.921-0.62 3.699-1.598 5.195l0.023-0.038c-0.999 1.555-2.417 2.826-4.106 3.682h0.009c0.376 0 0.752-0.021 1.126-0.064 1.613-0.633 2.974-1.603 4.049-2.831l0.010-0.012c1.042-1.19 1.8-2.654 2.154-4.27l0.012-0.064zM25.161 6.709l-2.002-1.909c-1.789 0.659-3.328 1.817-4.415 3.323s-1.672 3.289-1.677 5.116c0.007 2.020 0.72 3.979 2.027 5.569s3.133 2.718 5.19 3.208c1.836-2.131 2.91-4.764 3.068-7.516s-0.61-5.481-2.192-7.79zM38.933 14.746c-0.007-2.396-1.009-4.692-2.788-6.386s-4.188-2.649-6.702-2.656c-1.162-0.001-2.314 0.203-3.398 0.603l12.254 11.675c0.401-0.957 0.634-2.068 0.634-3.234 0-0 0-0.001 0-0.001v0z"></path>
</symbol>

<symbol id="icon-Logo-2" viewBox="0 0 57 32">
<path d="M26.654 3.699h0.073c0.135 0 0.281 0.013 0.425 0.026 0.636 0.045 1.268 0.14 1.889 0.285v-1.527c-0.64-0.161-1.292-0.265-1.949-0.311-0.22-0.017-0.494-0.031-0.77-0.038l-0.018-0h-0.228c-1.32 0.005-2.635 0.174-3.913 0.505-1.456 0.363-2.853 0.932-4.151 1.689v15.145c1.137-0.632 2.454-1.16 3.84-1.517l0.117-0.026c0.973-0.26 2.109-0.442 3.276-0.508l0.046-0.002h0.045c0.188-0.010 0.375-0.015 0.568-0.016v-1.552c-1.543 0.021-3.027 0.229-4.445 0.602l0.128-0.029c-0.523 0.136-1.027 0.283-1.5 0.445l-0.54 0.183v-11.809l0.23-0.111c1.638-0.796 3.549-1.311 5.568-1.429l0.041-0.002c0.007-0.001 0.016-0.001 0.025-0.001s0.017 0 0.026 0.001l-0.001-0c0.214-0.011 0.43-0.016 0.642-0.016h0.243c0.112 0.003 0.224 0.005 0.336 0.012z"></path>
<path d="M30.459 5.298c-0.004 0-0.009 0-0.014 0-0.793 0-1.57-0.067-2.326-0.195l0.081 0.011c-0.24-0.041-0.476-0.090-0.706-0.142v14.972c0.971 0.24 1.968 0.357 2.969 0.35 1.393-0.006 2.74-0.189 4.024-0.528l-0.111 0.025c1.574-0.4 2.957-0.979 4.226-1.729l-0.074 0.040v-14.875c-1.137 0.631-2.453 1.16-3.838 1.517l-0.118 0.026c-1.344 0.346-2.726 0.523-4.114 0.528zM36.445 5.556l0.54-0.181v11.812l-0.23 0.111c-0.783 0.384-1.701 0.723-2.657 0.969l-0.103 0.022c-1.154 0.299-2.339 0.452-3.531 0.457-0.356 0-0.709-0.015-1.052-0.045l-0.37-0.033v-12.148l0.43 0.029c0.284 0.019 0.616 0.030 0.951 0.030 0.013 0 0.026-0 0.040-0h-0.002c1.595-0.006 3.139-0.215 4.611-0.604l-0.127 0.029c0.503-0.133 1.004-0.282 1.5-0.449zM19.060 24.646c-0.145-0.15-0.348-0.243-0.573-0.243-0.010 0-0.020 0-0.029 0.001l0.001-0c-0.004-0-0.008-0-0.012-0-0.121 0-0.236 0.024-0.34 0.067l0.006-0.002c-0.205 0.082-0.364 0.243-0.442 0.444l-0.002 0.005c-0.043 0.107-0.063 0.22-0.062 0.335v2.023c-0.005 0.142 0.022 0.284 0.079 0.415 0.048 0.104 0.117 0.196 0.203 0.271 0.081 0.068 0.176 0.117 0.277 0.144 0.099 0.027 0.201 0.042 0.302 0.042 0.113 0.001 0.224-0.023 0.326-0.070 0.304-0.135 0.512-0.434 0.512-0.781v-0.226h-0.529v0.18c0 0.003 0 0.007 0 0.011 0 0.061-0.012 0.119-0.033 0.173l0.001-0.003c-0.018 0.045-0.044 0.083-0.077 0.114l-0 0c-0.061 0.047-0.137 0.076-0.221 0.077h-0c-0.009 0.001-0.020 0.002-0.031 0.002-0.089 0-0.168-0.043-0.216-0.11l-0.001-0.001c-0.044-0.071-0.071-0.158-0.071-0.251 0-0.007 0-0.014 0-0.021l-0 0.001v-1.887c-0.003-0.105 0.019-0.208 0.065-0.302 0.049-0.075 0.132-0.124 0.227-0.124 0.011 0 0.022 0.001 0.033 0.002l-0.001-0c0.003-0 0.006-0 0.010-0 0.092 0 0.174 0.045 0.226 0.114l0.001 0.001c0.055 0.071 0.088 0.162 0.088 0.261 0 0.004-0 0.008-0 0.011v-0.001 0.175h0.523v-0.206c0-0.003 0-0.006 0-0.009 0-0.124-0.024-0.243-0.067-0.351l0.002 0.006c-0.041-0.111-0.102-0.205-0.177-0.285l0 0zM22.202 24.624c-0.161-0.137-0.372-0.221-0.602-0.223h-0c-0.108 0-0.214 0.020-0.316 0.057-0.218 0.078-0.39 0.239-0.482 0.443l-0.002 0.005c-0.053 0.123-0.079 0.257-0.077 0.392v1.94c-0.004 0.137 0.022 0.272 0.077 0.397 0.048 0.105 0.118 0.197 0.205 0.271 0.081 0.075 0.176 0.133 0.279 0.171 0.101 0.037 0.208 0.057 0.316 0.057 0.231-0 0.442-0.087 0.603-0.229l-0.001 0.001c0.084-0.076 0.152-0.168 0.199-0.271 0.054-0.125 0.081-0.261 0.077-0.397v-1.941c0-0.005 0-0.012 0-0.018 0-0.135-0.028-0.263-0.079-0.38l0.002 0.006c-0.049-0.111-0.117-0.205-0.199-0.283l-0-0zM21.955 27.239c0.001 0.009 0.001 0.019 0.001 0.030 0 0.099-0.041 0.188-0.107 0.251l-0 0c-0.067 0.056-0.154 0.090-0.249 0.090s-0.182-0.034-0.249-0.091l0.001 0c-0.066-0.063-0.106-0.152-0.106-0.251 0-0.011 0-0.021 0.001-0.032l-0 0.001v-1.941c-0.001-0.009-0.001-0.019-0.001-0.029 0-0.099 0.041-0.188 0.106-0.251l0-0c0.067-0.056 0.154-0.090 0.249-0.090s0.182 0.034 0.249 0.091l-0.001-0c0.066 0.063 0.107 0.152 0.107 0.251 0 0.011-0 0.021-0.001 0.031l0-0.001v1.941zM26.329 28.107v-3.675h-0.508l-0.668 1.945h-0.010l-0.673-1.945h-0.503v3.674h0.525v-2.235h0.010l0.514 1.58h0.261l0.518-1.58h0.009v2.235h0.525zM29.311 24.69c-0.081-0.091-0.183-0.16-0.297-0.201-0.108-0.036-0.232-0.057-0.361-0.057-0.007 0-0.014 0-0.021 0h-0.779v3.675h0.524v-1.435h0.27c0.163 0.007 0.325-0.027 0.472-0.1 0.12-0.068 0.217-0.163 0.286-0.278l0.002-0.003c0.060-0.098 0.101-0.206 0.12-0.32 0.018-0.116 0.028-0.249 0.028-0.385 0-0.012-0-0.023-0-0.035l0 0.002c0.005-0.176-0.012-0.353-0.051-0.525-0.037-0.132-0.104-0.246-0.193-0.338l0 0zM29.041 25.81c-0.002 0.070-0.020 0.136-0.049 0.194l0.001-0.003c-0.030 0.056-0.077 0.101-0.134 0.128l-0.002 0.001c-0.065 0.030-0.14 0.047-0.22 0.047-0.010 0-0.019-0-0.028-0.001l0.001 0h-0.239v-1.249h0.27c0.008-0 0.016-0.001 0.025-0.001 0.077 0 0.149 0.017 0.214 0.048l-0.003-0.001c0.054 0.031 0.096 0.078 0.122 0.134l0.001 0.002c0.029 0.065 0.044 0.134 0.046 0.205v0.244c0 0.085 0.005 0.174 0 0.252h-0.005zM31.79 24.432h-0.429l-0.81 3.675h0.524l0.154-0.789h0.714l0.154 0.789h0.523l-0.83-3.675zM31.308 26.817l0.258-1.332h0.010l0.256 1.332h-0.523zM35.173 26.645h-0.010l-0.791-2.213h-0.503v3.675h0.523v-2.21h0.011l0.8 2.209h0.493v-3.674h-0.523v2.213zM38.372 24.432l-0.421 1.461h-0.011l-0.421-1.461h-0.554l0.719 2.122v1.553h0.524v-1.553l0.719-2.121h-0.555zM17.6 29.144h0.252v0.708h0.171v-0.708h0.251v-0.145h-0.674v0.146zM19.721 28.998l-0.331 0.853h0.182l0.070-0.194h0.34l0.073 0.194h0.187l-0.339-0.853h-0.182zM19.694 29.514l0.116-0.316 0.116 0.316h-0.232zM21.818 29.537h0.197v0.11c-0.055 0.044-0.126 0.072-0.203 0.072h-0c-0.004 0-0.008 0-0.012 0-0.068 0-0.129-0.032-0.169-0.081l-0-0c-0.040-0.057-0.063-0.127-0.063-0.203 0-0.007 0-0.013 0.001-0.020l-0 0.001c0-0.19 0.082-0.285 0.245-0.285 0.006-0.001 0.012-0.001 0.018-0.001 0.084 0 0.155 0.058 0.174 0.136l0 0.001 0.169-0.033c-0.036-0.166-0.156-0.251-0.362-0.251-0.003-0-0.007-0-0.011-0-0.11 0-0.211 0.042-0.287 0.11l0-0c-0.076 0.075-0.124 0.18-0.124 0.296 0 0.011 0 0.022 0.001 0.033l-0-0.001c-0 0.006-0 0.013-0 0.020 0 0.115 0.041 0.22 0.11 0.301l-0.001-0.001c0.075 0.078 0.181 0.126 0.297 0.126 0.009 0 0.018-0 0.027-0.001l-0.001 0c0.004 0 0.009 0 0.014 0 0.134 0 0.257-0.052 0.348-0.137l-0 0v-0.336h-0.37v0.144zM23.958 28.998h-0.172v0.853h0.597v-0.145h-0.425v-0.708zM25.77 28.998h-0.173v0.853h0.173v-0.853zM27.539 29.568l-0.349-0.57h-0.167v0.853h0.161v-0.557l0.343 0.557h0.171v-0.853h-0.158v0.57zM29.14 29.476h0.425v-0.145h-0.425v-0.187h0.457v-0.146h-0.63v0.853h0.647v-0.145h-0.475v-0.231zM33.020 29.335h-0.336v-0.336h-0.171v0.853h0.171v-0.373h0.336v0.373h0.171v-0.853h-0.171v0.337zM34.629 29.476h0.427v-0.145h-0.427v-0.187h0.459v-0.146h-0.629v0.853h0.646v-0.145h-0.475v-0.231zM36.812 29.476c0.149-0.023 0.224-0.102 0.224-0.237 0.001-0.007 0.001-0.016 0.001-0.024 0-0.068-0.033-0.128-0.084-0.165l-0.001-0c-0.063-0.032-0.137-0.051-0.216-0.051-0.012 0-0.023 0-0.035 0.001l0.002-0h-0.362v0.853h0.171v-0.357h0.034c0.004-0 0.009-0 0.014-0 0.034 0 0.066 0.007 0.094 0.020l-0.001-0.001c0.025 0.015 0.046 0.037 0.061 0.062l0.186 0.271h0.205l-0.103-0.166c-0.047-0.083-0.111-0.152-0.187-0.203l-0.002-0.001zM36.64 29.358h-0.127v-0.214h0.135c0.011-0.001 0.023-0.001 0.036-0.001 0.049 0 0.097 0.008 0.141 0.023l-0.003-0.001c0.023 0.020 0.038 0.050 0.038 0.083 0 0.019-0.005 0.037-0.014 0.053l0-0.001c-0.008 0.015-0.019 0.027-0.032 0.037l-0 0c-0.043 0.014-0.092 0.021-0.142 0.021-0.011 0-0.022-0-0.033-0.001l0.001 0zM38.459 29.476h0.425v-0.145h-0.425v-0.187h0.459v-0.146h-0.631v0.853h0.647v-0.145h-0.475v-0.231z"></path>
</symbol>

<symbol id="icon-Logo-1" viewBox="0 0 57 32">
<path d="M19.733 2.667l3.898 3.69h10.871v10.292l3.898 3.69v-17.671h-18.667z"></path>
<path d="M16.533 6.201v17.166h18.133v-6.823l-10.921-10.339-7.212-0.004zM31.212 20.856h-11.81v-11.545h0.835v10.763h10.975v0.781zM21.755 26.551l0.436-0.899h0.364l-0.635 1.198v0.698h-0.331v-0.698l-0.637-1.197h0.366l0.436 0.899zM23.627 27.107h-0.734l-0.154 0.442h-0.342l0.716-1.896h0.296l0.717 1.896h-0.344l-0.155-0.442zM22.986 26.842h0.549l-0.275-0.787-0.275 0.787zM24.926 27.037c0-0.087 0.024-0.168 0.071-0.241 0.048-0.074 0.142-0.161 0.283-0.262-0.058-0.069-0.109-0.147-0.151-0.23l-0.003-0.007c-0.026-0.055-0.042-0.12-0.043-0.188v-0c0-0.149 0.045-0.266 0.135-0.352s0.212-0.13 0.364-0.13c0.139 0 0.251 0.041 0.339 0.123 0.089 0.081 0.133 0.181 0.133 0.301 0 0.001 0 0.001 0 0.002 0 0.080-0.022 0.155-0.061 0.218l0.001-0.002c-0.053 0.079-0.118 0.145-0.194 0.196l-0.003 0.002-0.129 0.094 0.366 0.432c0.053-0.104 0.080-0.22 0.080-0.347h0.274c0 0.233-0.054 0.425-0.164 0.574l0.278 0.33h-0.367l-0.107-0.126c-0.128 0.095-0.29 0.153-0.465 0.153-0.007 0-0.014-0-0.021-0l0.001 0c-0.187 0-0.338-0.050-0.45-0.149-0.103-0.092-0.168-0.225-0.168-0.373 0-0.006 0-0.012 0-0.017l-0 0.001zM25.554 27.322c0.107 0 0.206-0.036 0.299-0.107l-0.414-0.489-0.041 0.029c-0.104 0.079-0.156 0.169-0.156 0.271 0 0.087 0.028 0.159 0.085 0.213 0.055 0.051 0.13 0.082 0.211 0.082 0.005 0 0.011-0 0.016-0l-0.001 0zM25.379 26.101c0 0.073 0.045 0.164 0.134 0.275l0.144-0.099 0.041-0.033c0.050-0.043 0.081-0.107 0.081-0.177 0-0.002-0-0.005-0-0.007v0c0-0 0-0.001 0-0.002 0-0.049-0.022-0.094-0.056-0.124l-0-0c-0.035-0.033-0.083-0.053-0.135-0.053-0.002 0-0.005 0-0.007 0h0c-0.002-0-0.005-0-0.008-0-0.055 0-0.105 0.024-0.139 0.062l-0 0c-0.034 0.040-0.055 0.092-0.055 0.149 0 0.003 0 0.006 0 0.008v-0zM28.823 26.932c-0.019 0.202-0.094 0.36-0.224 0.474s-0.303 0.17-0.519 0.17c-0.151 0-0.284-0.036-0.4-0.107-0.116-0.075-0.207-0.179-0.264-0.302l-0.002-0.004c-0.062-0.133-0.098-0.289-0.098-0.453 0-0.002 0-0.005 0-0.007v0-0.177c0-0.179 0.032-0.336 0.095-0.473 0.064-0.137 0.155-0.242 0.272-0.315 0.119-0.074 0.256-0.111 0.412-0.111 0.21 0 0.378 0.057 0.506 0.171s0.202 0.274 0.222 0.482h-0.328c-0.016-0.136-0.055-0.234-0.12-0.294-0.063-0.061-0.157-0.091-0.28-0.091-0.143 0-0.253 0.052-0.331 0.157-0.076 0.105-0.115 0.258-0.117 0.46v0.168c0 0.205 0.037 0.361 0.11 0.469s0.181 0.162 0.323 0.162c0.129 0 0.227-0.029 0.292-0.087s0.107-0.155 0.124-0.29h0.328zM30.631 26.65c0 0.186-0.032 0.349-0.096 0.49-0.065 0.14-0.157 0.247-0.276 0.323-0.119 0.075-0.256 0.112-0.412 0.112-0.154 0-0.291-0.037-0.411-0.112-0.122-0.078-0.217-0.188-0.277-0.317l-0.002-0.005c-0.062-0.136-0.099-0.295-0.099-0.463 0-0.006 0-0.013 0-0.019v0.001-0.107c0-0.185 0.032-0.348 0.098-0.49s0.158-0.25 0.277-0.324c0.12-0.076 0.257-0.114 0.411-0.114s0.291 0.037 0.411 0.112c0.119 0.074 0.212 0.181 0.277 0.32s0.098 0.301 0.099 0.486v0.105zM30.302 26.551c0-0.21-0.040-0.371-0.119-0.483-0.071-0.102-0.188-0.168-0.32-0.168-0.006 0-0.012 0-0.018 0l0.001-0c-0.004-0-0.009-0-0.014-0-0.132 0-0.249 0.066-0.32 0.167l-0.001 0.001c-0.080 0.111-0.121 0.269-0.123 0.473v0.109c0 0.208 0.041 0.37 0.122 0.483s0.194 0.171 0.338 0.171c0.146 0 0.258-0.055 0.336-0.167 0.079-0.111 0.118-0.273 0.118-0.487v-0.099z"></path>
</symbol>

<symbol id="icon-instagram-2" viewBox="0 0 32 32"><path d="M31.968 9.408c-.074-1.701-.349-2.869-.742-3.882a7.839 7.839 0 0 0-1.85-2.837l-.001-.001A7.906 7.906 0 0 0 26.597.861l-.054-.018C25.524.449 24.362.176 22.661.101 20.949.019 20.405 0 16.059 0c-4.344 0-4.888.019-6.595.094-1.699.074-2.869.349-3.88.742a7.847 7.847 0 0 0-2.839 1.85l-.001.001A7.9 7.9 0 0 0 .919 5.465l-.018.054C.506 6.538.232 7.7.157 9.401c-.082 1.712-.101 2.256-.101 6.602 0 4.344.019 4.888.094 6.595.075 1.701.35 2.869.744 3.882a7.915 7.915 0 0 0 1.849 2.837l.001.001c.8.813 1.77 1.443 2.832 1.843 1.019.395 2.182.67 3.882.744 1.707.075 2.251.094 6.595.094 4.346 0 4.89-.019 6.595-.094 1.701-.074 2.869-.349 3.882-.742a8.237 8.237 0 0 0 4.664-4.628l.019-.055c.394-1.019.669-2.182.744-3.882.075-1.707.093-2.251.093-6.595s-.006-4.888-.08-6.595zm-2.88 13.066c-.07 1.563-.333 2.406-.55 2.97a5.341 5.341 0 0 1-3.004 3.024l-.036.012c-.56.219-1.411.482-2.968.55-1.688.075-2.194.094-6.464.094-4.269 0-4.782-.019-6.464-.094-1.563-.069-2.406-.331-2.97-.55a4.953 4.953 0 0 1-1.836-1.192l-.001-.001a4.978 4.978 0 0 1-1.184-1.803L3.6 25.45c-.218-.563-.48-1.413-.549-2.97-.075-1.688-.094-2.195-.094-6.464 0-4.27.019-4.784.094-6.464.069-1.563.331-2.406.549-2.97a4.897 4.897 0 0 1 1.198-1.837l.002-.002a4.972 4.972 0 0 1 1.806-1.182l.034-.011c.56-.219 1.411-.48 2.968-.55 1.688-.074 2.195-.093 6.464-.093 4.275 0 4.782.019 6.464.093 1.563.069 2.406.331 2.97.55a4.91 4.91 0 0 1 1.837 1.194c.531.52.938 1.144 1.195 1.84.218.56.48 1.411.549 2.968.075 1.688.094 2.194.094 6.464 0 4.269-.019 4.768-.094 6.458z"/>
<path d="M16.059 7.782a8.223 8.223 0 0 0-8.219 8.221 8.223 8.223 0 0 0 16.442.008v-.009a8.223 8.223 0 0 0-8.221-8.221zm0 13.552a5.333 5.333 0 0 1 .001-10.666h.001a5.334 5.334 0 1 1 0 10.668zM26.525 7.458a1.92 1.92 0 0 1-3.84 0 1.92 1.92 0 0 1 3.84 0z"/></symbol>
<symbol id="icon-linkedin-1" viewBox="0 0 32 32"><path d="M31.992 32H32V20.262c0-5.741-1.235-10.163-7.947-10.163-3.227 0-5.392 1.77-6.277 3.45h-.093v-2.914h-6.365v21.363h6.627V21.42c0-2.786.528-5.48 3.978-5.48 3.398 0 3.45 3.179 3.45 5.658V32h6.619zM.528 10.635h6.635V32H.528V10.635zM3.843 0A3.843 3.843 0 0 0 0 3.843c0 2.12 1.722 3.878 3.843 3.878 2.12 0 3.842-1.757 3.842-3.878S5.965.002 3.844 0z"/></symbol>
<symbol id="icon-facebook-1" viewBox="0 0 32 32"><path d="M21.328 5.312h2.923V.224A36.478 36.478 0 0 0 20.144 0h-.157.008c-4.213 0-7.099 2.65-7.099 7.52V12H8.25v5.688h4.646V32h5.699V17.69h4.459l.709-5.688h-5.17V8.08c0-1.643.443-2.768 2.734-2.768z"/></symbol>
<symbol id="icon-twitter-1" viewBox="0 0 32 32"><path d="M32 6.078c-1.1.493-2.376.857-3.713 1.028l-.068.007a6.556 6.556 0 0 0 2.873-3.579l.013-.046a12.88 12.88 0 0 1-4.076 1.573l-.084.014A6.558 6.558 0 0 0 15.6 9.557v.004c0 .52.043 1.021.152 1.496-5.454-.266-10.28-2.88-13.522-6.861a6.524 6.524 0 0 0-.902 3.313v.001a6.57 6.57 0 0 0 2.914 5.451 6.453 6.453 0 0 1-2.994-.823l.033.017v.072a6.592 6.592 0 0 0 5.213 6.44l.043.008a6.403 6.403 0 0 1-1.662.215h-.061.003c-.419 0-.843-.024-1.242-.112.85 2.598 3.261 4.509 6.13 4.57a13.093 13.093 0 0 1-8.122 2.8H1.57h.001-.062c-.531 0-1.055-.034-1.569-.099l.061.006c2.826 1.846 6.287 2.944 10.004 2.944h.063-.003c12.072 0 18.672-10 18.672-18.669 0-.288-.01-.57-.024-.848a13.203 13.203 0 0 0 3.258-3.355l.03-.047z"/></symbol>
<symbol id="icon-astronaut-1" viewBox="0 0 32 32"><path fill="#2196f3" d="M31.974 4.524a.535.535 0 0 0-.427-.362h-.003l-1.911-.278-.855-1.731c-.179-.365-.777-.365-.956 0l-.855 1.731-1.911.278a.534.534 0 0 0-.296.91l1.383 1.348-.326 1.903a.532.532 0 0 0 .774.562l1.709-.899 1.709.899a.534.534 0 0 0 .773-.565v.003l-.326-1.903 1.383-1.348a.535.535 0 0 0 .134-.55l.001.004zm-2.463 1.327a.53.53 0 0 0-.153.472l.191 1.114-1-.526a.525.525 0 0 0-.501.001l.003-.001-1 .526.191-1.114a.53.53 0 0 0-.152-.472l-.811-.79 1.119-.162a.532.532 0 0 0 .402-.292l.5-1.013.5 1.013a.532.532 0 0 0 .402.292l1.119.162-.809.79zm-3.377 14.671h-1.067v1.067h1.067v-1.067zm0 2.134h-1.067v1.066h1.067v-1.066zm1.066-1.067h-1.067v1.067H27.2v-1.067zm-2.133 0H24v1.067h1.067v-1.067zm-2.667 4.8h-1.067v1.067H22.4v-1.067zm0 2.134h-1.067v1.067H22.4v-1.067zm1.067-1.067H22.4v1.067h1.067v-1.067zm-2.133 0h-1.067v1.067h1.067v-1.067zM16 24.256h-1.066v1.067H16v-1.067zm0 2.133h-1.066v1.067H16v-1.067zm1.067-1.067H16v1.067h1.067v-1.067zm-2.133 0h-1.067v1.067h1.067v-1.067zm-9.067-19.2H4.801v1.066h1.066V6.122zm0 2.134H4.801v1.066h1.066V8.256zm1.066-1.067H5.866v1.067h1.066V7.189zm-2.133 0H3.733v1.067H4.8V7.189z"/><path d="M24.715 14.16a1.774 1.774 0 0 0-1.179-.703l-.009-.001a1.769 1.769 0 0 0-1.344.355l.004-.003-1.253.96-1.898 1.417-1.358-.541c2.421-1.086 4.113-3.508 4.113-6.32 0-3.823-3.122-6.934-6.961-6.934S7.869 5.5 7.869 9.324c0 1.386.415 2.674 1.12 3.759l-2.768-.024c-.009 0-.016.005-.023.005a.511.511 0 0 0-.159.033l.004-.001c-.013.005-.026.007-.038.013-.006.003-.013.003-.019.006l-3.233 1.596-.001.001-1.893.91a.5.5 0 0 0-.065.036l.001-.001a1.782 1.782 0 0 0-.594 2.306l-.005-.01c.22.424.592.742 1.043.885l.013.003a1.772 1.772 0 0 0 1.388-.133l-.009.005 1.388-.738 2.264-1.169 1.357-.008-5.442 5.415-.001.001-1.339 1.333a1.643 1.643 0 0 0-.491 1.173v.005a1.668 1.668 0 0 0 1.667 1.664h.002a1.67 1.67 0 0 0 1.18-.485l1.314-1.309 1.741-1.3.901.897L4.07 27.28a1.643 1.643 0 0 0-.491 1.173v.004a1.662 1.662 0 0 0 1.666 1.664h.003a1.67 1.67 0 0 0 1.18-.485l4.488-4.472c.007-.006.016-.009.022-.016l5.166-5.658 3.471.494a.474.474 0 0 0 .262-.032c.017-.006.032-.015.049-.023.019-.01.039-.015.058-.027l3.213-2.133c.012-.008.018-.021.029-.03.013-.01.029-.014.041-.026l1.271-1.191c.348-.326.564-.787.564-1.3 0-.4-.132-.769-.355-1.066l.003.005zM2.13 17.77a.706.706 0 0 1-.564.05l.005.001a.717.717 0 0 1-.215-1.258l.002-.001 1.314-.632.316.924.133.389-.992.527zm3.497-1.828-1.548.8-.255-.746-.184-.537 2.027-1.001-.04 1.484zm15.1-6.62c0 .918-.219 1.785-.599 2.56l-4.181-1.899a1.865 1.865 0 0 0-.782-1.384l-.006-.004 1.464-4.861c2.377.757 4.104 2.975 4.104 5.588zm-11.789 0c0-3.235 2.644-5.867 5.894-5.867.253 0 .5.022.745.053l-1.432 4.753c-.019 0-.037-.006-.057-.006h-.001a1.872 1.872 0 0 0-1.872 1.867 1.873 1.873 0 0 0 1.872 1.867h.001c.695 0 1.295-.383 1.618-.944l3.863 1.755a5.891 5.891 0 0 1-4.737 2.39c-3.25 0-5.894-2.632-5.894-5.867zm5.957.8c0 .441-.362.8-.806.8h-.001a.804.804 0 0 1-.804-.8c0-.441.361-.8.806-.8s.806.359.806.8zM2.464 25.146a.606.606 0 0 1-.855.001.591.591 0 0 1 0-.844l.962-.959.852.848-.959.954zm3.214 3.734a.606.606 0 0 1-.855.001.591.591 0 0 1 0-.844l.963-.959.852.848-.96.955zm3.482-3.469-.001.001-1.765 1.76-.852-.848 1.765-1.757a.527.527 0 0 0 .09-.136c.007-.014.02-.026.026-.04.016-.041.019-.085.026-.128.003-.025.014-.048.014-.073 0-.035-.013-.07-.02-.105-.006-.032-.006-.064-.019-.096a.536.536 0 0 0-.092-.138c-.01-.012-.014-.026-.025-.038h-.001l-.001-.002-1.607-1.6c-.017-.017-.039-.024-.058-.038a.491.491 0 0 0-.084-.056l-.003-.001a.527.527 0 0 0-.09-.031l-.003-.001a.502.502 0 0 0-.101-.02h-.025a.603.603 0 0 0-.075.005h.003c-.036.005-.069.009-.104.021s-.064.027-.094.045c-.02.011-.043.015-.061.029l-1.774 1.324-.901-.897 2.399-2.386 4.36 4.289-.928.919zm6.819-7.017c-.016-.002-.03.004-.046.003l-.027-.001a.562.562 0 0 0-.092.008h.003a.484.484 0 0 0-.187.07l.002-.001a.492.492 0 0 0-.083.061c-.013.011-.028.016-.04.029l-4.698 5.146-4.328-4.256 2.833-2.818a.535.535 0 0 0-.378-.911h-.002l-2.219.013.028-1.607 3.104.027a6.928 6.928 0 0 0 4.978 2.101h.003c.438 0 .864-.046 1.28-.122.04.032.08.064.129.085l2.41.96.152.758.178.886-3.003-.427zm4.041.178-.313-1.558 1.446-1.08.946 1.257-2.08 1.381zm3.753-2.831-.837.785-.931-1.236.831-.637a.735.735 0 0 1 .543-.143.718.718 0 0 1 .621.71.71.71 0 0 1-.226.521z"/>
<path d="m13.602 18.544-2.143-2.134a.53.53 0 0 0-.752 0l-2.143 2.133a.535.535 0 0 0 0 .756l2.142 2.134a.53.53 0 0 0 .752 0l2.143-2.134a.532.532 0 0 0 0-.756zm-2.519 1.759-1.387-1.381 1.386-1.381 1.387 1.381-1.387 1.381zm6.081-15.232-.258 1.036c.071.018 1.738.452 1.738 2.149h1.067c0-2.017-1.666-2.965-2.547-3.184zm2.547 4.251h-1.067v1.066h1.067V9.322z"/></symbol>
<symbol id="icon-diagram-1" viewBox="0 0 32 32"><path fill="#2196f3" d="M14.926 14.965h1.066v4.798h-1.066v-4.798zm4.264 2.132h1.066v2.665H19.19v-2.665zm-8.529 1.599h1.066v1.066h-1.066v-1.066zm-3.198-.533h1.066v1.599H7.463v-1.599z"/><path d="M1.599 28.291h25.586a1.6 1.6 0 0 0 1.599-1.599V24.56a1.6 1.6 0 0 0-1.599-1.599h-.533V9.667l3.028-2.868a1.608 1.608 0 1 0-.742-.752l-.004-.01-2.281 2.162v-1.23a1.6 1.6 0 0 0-1.599-1.599H3.731a1.6 1.6 0 0 0-1.599 1.599v15.992h-.533A1.6 1.6 0 0 0 0 24.56v2.132a1.6 1.6 0 0 0 1.599 1.599zM30.384 4.837a.533.533 0 0 1 0 1.066.533.533 0 0 1 0-1.066zM3.198 6.969c0-.294.239-.533.533-.533h21.323c.294 0 .533.239.533.533v2.239l-1.066 1.013V8.036a.534.534 0 0 0-.534-.534H4.798a.534.534 0 0 0-.534.533v13.327c0 .294.239.533.534.533h19.189a.534.534 0 0 0 .534-.533v-9.675l1.066-1.01V22.96H3.198V6.969zm4.798 6.93h-.005a1.6 1.6 0 1 0 1.112 2.748l1.853.93a.535.535 0 0 0 .636-.122l3.939-4.432 3.872 2.902a.534.534 0 0 0 .686-.039l3.365-3.188v8.131H5.331V8.568h18.123v2.661l-3.771 3.572-3.904-2.927a.534.534 0 0 0-.718.071v.001l-3.993 4.493-1.493-.746c.011-.064.017-.128.02-.193a1.6 1.6 0 0 0-1.599-1.599zm.533 1.599a.533.533 0 0 1-1.066 0 .533.533 0 0 1 1.066 0zm3.198 8.528h5.33v.533a.533.533 0 0 1-.533.533h-4.265a.533.533 0 0 1-.533-.533v-.533zm-10.66.534c0-.294.238-.533.533-.533h9.062v.533a1.6 1.6 0 0 0 1.599 1.599h4.265a1.6 1.6 0 0 0 1.599-1.599v-.533h9.062c.294 0 .533.239.533.533v2.132a.533.533 0 0 1-.533.533H1.601a.533.533 0 0 1-.533-.533V24.56z"/></symbol>
<symbol id="icon-clock-1" viewBox="0 0 32 32"><path d="M31.296 15.301C31.295 6.849 24.441-.002 15.988 0S.685 6.855.687 15.308c.002 6.788 4.422 12.543 10.541 14.545l.108.031a.667.667 0 0 0 .529-.065.636.636 0 0 0 .283-.357l3.865-12.25a1.913 1.913 0 1 0-.852-3.63l.011-.005-5.106-5.107a.638.638 0 0 0-.902.902l5.103 5.109a1.847 1.847 0 0 0-.191.826c0 .602.283 1.137.723 1.48l.004.003-3.682 11.673C3.843 25.782.117 17.709 2.797 10.431S13.551-.573 20.829 2.108c7.278 2.681 11.004 10.754 8.323 18.032-1.345 3.581-4.003 6.406-7.374 7.938l-.088.036-.398-1.874a.639.639 0 0 0-1.05-.343l.001-.001-3.837 3.426a.637.637 0 0 0 .227 1.083l.005.001 4.899 1.563a.637.637 0 0 0 .818-.744l.001.004-.391-1.839c5.528-2.374 9.329-7.772 9.329-14.057v-.034.002zm-15.304-.637a.638.638 0 0 1 0 1.276.638.638 0 0 1 0-1.276zm2.1 14.864 2.184-1.948.603 2.84-2.787-.892z"/><path fill="#2196f3" d="M15.354 3.185V4.46a.638.638 0 0 0 1.276 0V3.185a.638.638 0 1 0-1.276 0zM3.876 14.664a.638.638 0 0 0 0 1.276h1.275a.638.638 0 0 0 0-1.276H3.876zm24.232 1.275a.638.638 0 0 0 0-1.276h-1.275a.638.638 0 0 0 0 1.276h1.275z"/></symbol>
<symbol id="icon-Group" viewBox="0 0 30 32"><path d="m29.859 22.098-8.443-8.505.937-4.616c.225.09.485.144.758.146h.033a2.16 2.16 0 1 0-2.029-1.42l-.005-.015-4.96.606L8.059.161a.53.53 0 0 0-.376-.16.536.536 0 0 0-.373.155L5.798 1.66a.535.535 0 0 0 0 .754l.814.825c-1.143 2.062-1.816 4.522-1.816 7.139 0 4.106 1.656 7.824 4.336 10.525l-.001-.001a.49.49 0 0 0 .146.097 2.986 2.986 0 0 0-.052.546v6.188h-6.4a2.669 2.669 0 0 0-2.667 2.666v1.067c0 .295.239.534.534.534h24.534a.534.534 0 0 0 .533-.534v-1.067a2.67 2.67 0 0 0-2.666-2.666h-6.4v-2.742a14.784 14.784 0 0 0 10.166-1.502l-.077.039.818.823a.534.534 0 0 0 .376.16.536.536 0 0 0 .373-.155l1.512-1.504a.535.535 0 0 0 0-.754zM22.366 6.233a1.067 1.067 0 1 1 .752 1.822h-.004a1.066 1.066 0 0 1-.747-1.822h-.002zM21.11 9.737l-.598 2.946-1.175-1.183 1.774-1.763zm-.606-.902-1.92 1.909-1.486-1.493 3.406-.416zM23.09 28.8a1.6 1.6 0 0 1 1.6 1.6v.534H1.224V30.4a1.6 1.6 0 0 1 1.6-1.6h20.267zm-7.467-2.134v1.067h-5.334v-1.067h5.334zM10.29 25.6v-4.053c0-1.294 1.196-2.346 2.666-2.346s2.667 1.053 2.667 2.346V25.6H10.29zm6.4-1.696v-2.357c0-1.882-1.675-3.413-3.733-3.413h-.058c-1.353 0-2.54.707-3.213 1.771l-.009.016a13.817 13.817 0 0 1-3.812-9.55c0-2.314.567-4.496 1.569-6.414l-.036.077L26 22.743c-1.823.947-3.979 1.502-6.266 1.502-1.079 0-2.128-.124-3.136-.357l.093.018zm11.289-.684L6.922 2.039l.754-.752 7.935 7.98c.004 0 .006.007.01.01l13.115 13.191-.757.752z"/><path fill="#2196f3" d="M12.961 20.267h-.007a1.6 1.6 0 0 0-.003 3.2h.007a1.6 1.6 0 0 0 .002-3.2zm.373 1.978a.534.534 0 1 1-.378-.912.533.533 0 0 1 .374.911h.005z"/></symbol>
<symbol id="icon-smartphone" viewBox="0 0 32 32"><path d="M23 0H9C7.346 0 6 1.346 6 3v26c0 1.654 1.346 3 3 3h14c1.654 0 3-1.346 3-3V3c0-1.654-1.346-3-3-3zM9 2h14a1 1 0 0 1 1 1v21H8V3a1 1 0 0 1 1-1zm14 28H9a1 1 0 0 1-1-1v-3h16v3a1 1 0 0 1-1 1z"/><path d="M10.708 27.478a.889.889 0 0 1 .001 1.319l-.001.001a1.048 1.048 0 0 1-1.417 0l.001.001a.889.889 0 0 1-.001-1.319l.001-.001a1.048 1.048 0 0 1 1.417 0l-.001-.001z"/></symbol>
<symbol id="icon-envelope" viewBox="0 0 32 32"><path d="M29 4H3C1.346 4 0 5.346 0 7v18c0 1.654 1.346 3 3 3h26c1.654 0 3-1.346 3-3V7c0-1.654-1.346-3-3-3zm0 2c.136 0 .266.028.384.078L16 17.678 2.616 6.078A.971.971 0 0 1 3 6h26zm0 20H3a1 1 0 0 1-1-1V8.19l13.344 11.566a.997.997 0 0 0 1.313-.001l-.001.001L30 8.19V25a1 1 0 0 1-1 1z"/></symbol>
<symbol id="vector" viewBox="0 0 30 32"><path d="M32 3.223l-3.223-3.223-12.777 12.777-12.777-12.777-3.223 3.223 12.777 12.777-12.777 12.777 3.223 3.223 12.777-12.777 12.777 12.777 3.223-3.223-12.777-12.777 12.777-12.777z"/></symbol>
</defs></svg>
